<svg xmlns="http://www.w3.org/2000/svg" viewBox="0 0 52.902 48.754"><g fill-rule="evenodd" clip-rule="evenodd" fill="#A1C900"><path d="M43.5 30.3l7.8 6.7c.6.5.7.5 1.6 0-.2-.4-.5-.6-.8-.8l-8.2-7-1.6-1.5c0-.2-.2-.2-.4-.3-.7.4-1.5.7-2 1.3l-1.2.7-1 .8-4.6 3.6-.7.5c0 .2-.3.3-.3.5v1c.4.2.6-.2 1-.4 1.8-1.4 3.7-3 5.6-4.3l2-1.4c.2 0 .3-.3.6 0v2.3c0 1.3.3 1-1 2-2.5 2-5 3.7-7.3 5.6-.6.4-1 1-.7 2l1.2-.6c2.5-2 5-3.8 7.5-5.6 0 0 .2-.3.5 0V39L39 40.8l-3.8 3c-.4.2-.8.5-1.2 1v.3s.2.2.3 0c.3 0 .7-.2 1-.4L41 41s.3 0 .4-.2c.2.4 0 .8 0 1 .2 2 .2 4 .2 6 0 .2 0 .6.2 1h.5c.2-.4 0-.8 0-1v-7s0-.3.3-.4l1 .7.8 1 3 3c.5.5 1.5-.5.8-1-1.7-1.7-3-3.7-5.3-5h-.2c-.2 0-.3-.2-.4-.4-.2-2 0-3.7 0-4.3l1.8 1.6c2 2 4.2 3.8 6.3 5.8l.6.5h.6v-1.2l-1-.7-7-6.6-1-1c-.2-.3-.3-.5-.3-.8 0-.5 0-1 .2-1.4V30v-.3c.5 0 .8.4 1 .6zM22.7 11.5l-4.2-4.2L16 4.6 14.6 3l-1.2-1.4-.4-.4c-.4-1-.6-.6-1.4-1.2h-.3-.3c-.7.6-1 .2-1.4 1.2l-.3.4c-.5.5-1 1-1.3 1.5-.5.6-1 1-1.3 1.6L4 7.3l-3.4 4v.4c0 .2 0 .5.2.6l1-.8.7-.8c1-1 2-2 2.7-3l2.8-3 2.8-3c0-.2-.4.6 0 .3v2.8L9.3 6C8.4 7 7.4 7.8 7 9c-.2 0-.4.3-.5.4L3.7 12c-.2 0-.3.2-.5.3l-1.6 2L0 15.7v1.4l1.2-1 2-2c1-1.2 2-2.3 3-3.2l.6-.6C7.8 9.2 9 8 10.3 6.8c0 0 .2-.3.4 0v3l-3.2 3-.7.7L5.2 15c-1.8 1.5-3.4 3.2-5 4.7-.2 1-.2 1 0 1.4.8-.5 1.6-1 2.2-2l.3-.2c.5-.3 1-.8 1.4-1.3l1-.8c.8-.6 1.5-1.3 2-2l3.2-3c0-.2.2-.4.4-.3v.2c.2 1.4.2 2.8.2 4.3 0 .2 0 .5-.4.7l-1.4 1-3.7 3.6L3.6 23c-.2 0-.4.3-.7.5l-3 2.7c0 .4 0 1 .2 1.4h.2c.5-.7 1-1 1.6-1.7l3-3 3-3 2-1.6c.2-.2.5-.3.8 0v4l-2.2 1.8c-.4.4-.8 1-1.3 1.3L5.8 27c-.8.6-1.6 1-2.4 1.8-.2 0-.3.2-.4.3-.8 1-1.5 1.7-2.5 2.2l-.3.4v1.2c.8-.6 1.4-1 2-1.7.4-.2.8-.6 1.2-1 .2 0 .4-.3.6-.4 1-.8 2-1.7 3.2-2.5 0 0 .2 0 .3-.2.8-1 2-2 2.8-2.8 0 0 .3 0 .4-.2v3.5c0 .2-.4.4-.6.6-2 2-4.3 4-6.5 6-1 .8-1.8 1.8-3 2.4-.4.3-.3.4 0 1 .2.2.4.2.7 0 .4-.3 1-.6 1.2-1L5 33.7c1.7-1.3 3.2-2.7 4.7-4l.5-.5c.2-.2.3-.4.6-.3V32c0 .2 0 .5-.3.6l-1.4 1-1.3 1.3-.6.6L5 37.4l-2.4 2c-.7.4-1.3 1-2 1.7v1.3c.2 0 .4 0 .5-.2L2.2 41l2-1.5c1-1 2-2 3.3-2.8l.8-.6c.6-1 1.4-1.3 2-2h.4V46h.9l.2-.2v-1-7.8l-.2-1.4V34h.3c.8.7 1.7 1 2.3 2 .2 0 .4.3.7.5 1.2.8 2.3 1.8 3.4 2.8l2 1.5c.4.4.8 1 1.3 1.3 0 .2.3.2.5.3V41c-.6-.5-1.2-1.2-2-1.7l-2.3-2c-1-.5-1.7-1-2.5-1.7-.2 0-.4-.3-.6-.5l-1.5-1-1.4-1.2-.2-.6V29c.4-.2.5 0 .6.2.2 0 .3.2.5.4 1.4 1.4 3 2.8 4.5 4l2.7 2.6 1.2 1c.3.2.6.2.8 0 .3-.6.3-.7-.2-1-1-.6-2-1.6-3-2.4-2-2-4.3-4-6.5-6l-.7-.6v-3-.4c.3 0 .4 0 .5.2 1 1 2 1.7 2.8 2.8.2 0 .3.2.4.3 1 1 2.2 1.8 3.3 2.6l.5.5 1 1.4 2 1.6v-.2-1s0-.2-.2-.3c-1-.6-1.6-1.6-2.4-2.4 0 0-.2 0-.3-.2-1-.7-1.7-1.2-2.5-2-.5-.3-1-.8-1.5-1.3L14 24.2l-2-1.8c-.2-1.4-.2-2.7-.2-4 .3-.3.6-.2.8 0 .7.5 1.4 1 2 1.7l3 3 3 3 1.5 1.5h.4c.2-.4 0-1 0-1.3l-2.7-2.7-.7-.6c-.6-.7-1.2-1-1.7-1.7-1-1.3-2.4-2.4-3.7-3.5l-1.4-1c-.2-.3-.4-.6-.4-1v-4.2l.2-.2c.2 0 .3 0 .4.2l3 3c.7.8 1.4 1.5 2.2 2l1 1c.4.4.8 1 1.4 1.2l.3.3c.6 1 1 1.5 2 2v-1.3c-1.7-1.6-3-3.2-5-4.6L16 13.6 15 13l-3-3.3v-3c0-.2.2 0 .4 0 1.3 1.2 2.3 2.5 3.4 3.7l.6.6c1.2 1 2 2 3 3 .6 1 1.4 1.6 2 2.3.4.3.2.4.6.8.2-.5 0-1 0-1.4l-1-1.4-1.6-2-.4-.3L16 9s0-.3-.2-.4C15 7.8 14 7 13.2 6L12 5c-.2-1 0-1.8 0-2.8l-.2-.3 2.8 3 2.8 3 2.8 3 1.4 1.2 1 .7c.2-.2 0-.4 0-.6v-.5z"/></g></svg>

