<svg xmlns="http://www.w3.org/2000/svg" viewBox="0 0 61.902 68.822"><g fill-rule="evenodd" clip-rule="evenodd" fill="#A1C900"><path d="M52.5 47l7.8 6.8c.6.5.7.5 1.6 0-.2-.4-.5-.6-.8-.8L53 46l-1.6-1.6-.4-.3-2 1.5-1.2.7-1 .8-4.6 3.6-.7.5c0 .2-.3.4-.3.5v1.2c.4 0 .6-.3 1-.5 1.8-1.4 3.7-3 5.6-4.3l2-1.6c.2 0 .3-.3.6 0v2.2c0 1.5.3 1.3-1 2.2L42 56.3c-.6.5-1 1-.7 2 .5-.2 1-.3 1.2-.5L50 52h.5V56c-1 .6-1.6 1.2-2.4 1.8-1.2 1-2.5 2-3.8 2.8l-1.2 1v.5h.3l1-.6 5.7-3.6s.3 0 .4-.2c.2.4 0 .7 0 1 .2 2 .2 4 .2 6 0 .2 0 .6.2 1h.5c.2-.4 0-.8 0-1v-7s0-.3.3-.4l1 .7.8.6 3 3c.5.7 1.5-.3.8-1-1.7-1.5-3-3.6-5.3-4.8h-.2c-.2 0-.3-.3-.4-.4-.2-2 0-3.7 0-4.3l1.8 1.7 6.3 6c.2 0 .4.2.6.4.2.2.4.2.6.2V58l-1-1-7-6.5-1-1c-.2-.3-.3-.5-.3-.8 0-.4 0-1 .2-1.3V47v-.5c.5 0 .8.4 1 .6zM46 32l.8.7c.4-.6.3-1.2-.3-1.6-.4-.2-.7-.6-1.2-1-.8-.4-1.4-1.2-2.2-1.8-1-.8-2-1.5-3-2.5-.7-.8-1.4-1.4-2.2-2l-1.5-1.4V12v-.8l.5.4 3 3 2.2 2 .8.7 1.6 1.4.3.3c.6.8 1.4 1.4 2.2 2 .2-1 0-1.2-.5-1.8l-3.3-3-2-1.8c-1.2-1-2.3-2.2-3.3-3.2l-1.3-1-.4-.7V2.3c.3 0 .4 0 .5.2L39.2 5l3.3 3.4c0 .2.2.3.3.4l.5.7 3.5 3.5c.3-.4.2-.8.2-1l-3.5-4c-.6-.6-1.2-1.4-2-2-1.3-1.2-2.2-2.7-3.4-4-.3-1-1-1.2-1.5-1.6 0 0-.2 0-.3-.2-.2-.2-.4-.2-.5-.2h-.5v.2h-.3v.2c-.7.4-1.4.7-1.6 1.5h-.2c-1 1.3-2 2.8-3.4 4l-2 2c-1 1.3-2.3 2.5-3.4 3.8V13L28 9.5l.6-.7.3-.4C30 7.4 31 6 32 5l2.3-2.5c0-.2.3-.3.5-.2v6.9c0 .4 0 .7-.4 1-.4.3-.8.6-1 1l-3.4 3c-.6.8-1.4 1.4-2 2l-3.4 3c-.6.5-.7 1-.3 1.8.7-.6 1.5-1.2 2-2 .2 0 .3-.2.4-.3.6-.3 1-1 1.5-1.5l.8-.7c.8-.5 1.5-1.2 2-2l3.2-3s.3 0 .5-.3v11l-1.5 1.5c-.7.6-1.5 1.2-2.2 2-1 1-2 1.7-3 2.5-1 .6-1.5 1.3-2.3 2-.5.2-.8.6-1.2 1-.6.3-.7 1-.3 1.5l1-.8 3.3-3 2-1.5c.5-.4 1-.8 1.3-1.3l1.6-1.5 1.3-1V34c0 2.8-.4 5.4-.2 8v3.5c0 .2.2.4.5.4 0 0 .3 0 .3-.2h.4c.2 0 .5 0 .5-.3v-.7V42l-.2-8v-5.6-3.8-1l1.4 1 1.5 1.6c.4.5.8 1 1.4 1.3l2 1.5 3.3 3zM22.7 34.5l-4.2-4.2-2.5-2.7-1.4-1.5-1.2-1.5c-.2 0-.3-.2-.4-.4-.4-.8-.6-.4-1.4-1h-.3-.3c-.7.6-1 .2-1.4 1 0 .3-.2.4-.3.5-.5.6-1 1-1.3 1.6-.5.6-1 1-1.3 1.6L4 30.3.7 34v.7c0 .2 0 .4.2.6l1-.8.7-.8c1-1 2-2 2.7-3l2.8-3 2.8-3c0-.2-.4.5 0 .3v2.8L9.3 29c-1 1-2 1.7-2.5 2.8-.2 0-.4.2-.5.4-1 .8-2 1.7-2.8 2.6l-.5.5-1.6 2L0 38.7v1.4l1.2-1 2-2c1-1.2 2-2.4 3-3.3l.6-.6c1-1.2 2.2-2.5 3.5-3.7 0 0 .2-.2.4 0v3l-3.2 3c-.2.4-.4.6-.7.8L5.2 38c-1.8 1.5-3.4 3-5 4.7-.2 1-.2 1 0 1.4.8-.5 1.6-1.2 2.2-2 0 0 0-.2.3-.2.5-.3 1-1 1.4-1.3l1-1c.8-.5 1.5-1 2-2l3.2-3s.2-.2.4 0c.2 1.5.2 3 .2 4.4 0 .2 0 .5-.4.7l-1.4 1c-1.3 1-2.5 2.3-3.7 3.6l-1.7 1.5-.7.7c-1 1-2 1.8-3 2.6 0 .6 0 1 .2 1.5h.2L2 49l3-3 3-3 2-1.6c.2-.2.5-.3.8 0v4L8.6 47l-1.3 1.2L5.8 50c-.8.5-1.6 1-2.4 1.7-.2 0-.3.3-.4.4-.8.8-1.5 1.6-2.5 2.2 0 0-.3.2-.3.4v1.2c.8-.6 1.4-1 2-1.7.4-.2.8-.6 1.2-1 .2 0 .4-.3.6-.4 1-1 2-1.7 3.2-2.6l.3-.3c.8-1 2-1.8 2.8-2.7l.4-.3v3.6c0 .2-.4.4-.6.6-2 2-4.3 4-6.5 6-1 .8-1.8 1.7-3 2.4-.4.3-.3.4 0 1H1c.4-.3 1-.6 1.2-1 1-1 1.7-1.8 2.7-2.5 1.7-1.3 3.2-2.8 4.7-4.2.2 0 .3-.2.5-.4.2 0 .3-.2.6 0V55c0 .2 0 .4-.3.6l-1.4 1c-.4.5-1 .8-1.3 1.3l-.6.6c-.6.6-1.5 1-2.2 1.7l-2.4 2c-.7.4-1.3 1.2-2 1.8v1.3c.2 0 .4-.2.5-.3l1.3-1.2 2-1.6c1-1 2-2 3.3-2.7l.8-.7c.6-.7 1.4-1.2 2-1.8h.4V69h.9c0-.2.2-.2.2-.3v-1V60l-.2-1.4V57h.3c.8.6 1.7 1 2.3 1.8l.7.7c1.2.8 2.3 1.8 3.4 2.7l2 1.6 1.3 1.2.5.3V64c-.6-.5-1.2-1.3-2-1.8s-1.5-1.2-2.3-2c-1-.5-1.7-1-2.5-1.6L15 58l-1.5-1-1.4-1.2-.2-.6V52c.4-.2.5 0 .6 0l.5.5c1.4 1.4 3 3 4.5 4.2 1 .7 1.8 1.6 2.7 2.5l1.2 1h.8c.3-.6.3-.7-.2-1l-3-2.4c-2-2-4.3-4-6.5-6l-.7-.6v-3-.5c.3 0 .4.2.5.3 1 1 2 1.7 2.8 2.7.2 0 .3.2.4.3 1 1 2.2 1.7 3.3 2.6l.5.4 1 1.4 2 1.6v-.2-1s0-.3-.2-.4c-1-.5-1.6-1.6-2.4-2.3l-.3-.3-2.5-1.8-1.5-1.6-1.3-1.2c-.7-.6-1.4-1.2-2-2-.2-1.2-.2-2.6-.2-4 .3 0 .6 0 .8.2l2 1.6 3 3c1 1 2 1.8 3 3l1.5 1.5h.4c.2-.4 0-1 0-1.4-1-.7-1.8-1.6-2.7-2.5l-.7-.7-1.7-1.5c-1-1.3-2.4-2.5-3.7-3.5l-1.4-1c-.2-.3-.4-.6-.4-1v-4.3h.2c.2-.2.3 0 .4 0l3 3c.7 1 1.4 1.5 2.2 2l1 1c.4.4.8 1 1.4 1.3 0 0 .2 0 .3.2.6.8 1 1.4 2 2v-1.3c-1.7-1.6-3-3.2-5-4.7L16 36.5l-.7-.7-3-3v-3.2h.4c1.3 1.3 2.3 2.6 3.4 3.8l.6.5c1.2.8 2 2 3 3 .6 1 1.4 1.5 2 2.2.4.3.2.5.6.8.2-.5 0-1 0-1.4l-1-1.4-1.6-2-.4-.4c-1-1-2-1.8-3-2.6 0-.2 0-.3-.2-.4-.7-1-1.7-1.8-2.6-2.7L12 28c-.2-1 0-1.8 0-2.8l-.2-.4 2.8 3 2.8 3c.8 1.2 2 2 2.8 3 .2.4 1.2 1 1.4 1.2l1 1c.2-.3 0-.5 0-.7v-.5z"/></g></svg>